# xmcd CD database file
#
# Track frame offsets:
#	150
#	34392
#	65821
#	109412
#	146375
#	184321
#	226788
#	248992
#	293686
#
# Disc length: 4417 seconds
#
# Revision: 1
# Processed by: cddbd v1.4PL0 Copyright (c) Steve Scherf et al.
# Submitted via: CDex 1.50beta10
#
DISCID=87113f09
DTITLE=Arne Domnérus - Bengt Hallberg - Egil "Bop" Johansen - George Riedel - Lars Erst - Jazz at the Pawnshop
DYEAR=1900
DGENRE=Jazz
TTITLE0=Limehouse Blues
TTITLE1=I'm Confessin'
TTITLE2=High Life
TTITLE3=Jeep's Blues
TTITLE4=Oh Lady Be Good
TTITLE5=Take Five
TTITLE6=Everything Happens to Me
TTITLE7=Barbados
TTITLE8=Stuffy
EXTD=
EXTT0=
EXTT1=
EXTT2=
EXTT3=
EXTT4=
EXTT5=
EXTT6=
EXTT7=
EXTT8=
PLAYORDER=
